<?xml version="1.0" encoding="UTF-8"?><!DOCTYPE svg PUBLIC "-//W3C//DTD SVG 1.1//EN" "http://www.w3.org/Graphics/SVG/1.1/DTD/svg11.dtd"><svg xmlns="http://www.w3.org/2000/svg" xmlns:xlink="http://www.w3.org/1999/xlink"><symbol id="like" viewBox="0 0 24 24">
    <path d="M1 8.4C1 4 4.5 3 6.5 3C9 3 11 5 12 6.5C13 5 15 3 17.5 3C19.5 3 23 4 23 8.4C23 15 12 21 12 21C12 21 1 15 1 8.4Z" stroke-width="2"/>
</symbol><symbol id="minus" viewBox="0 0 24 24">
    <path d="M18.75 10.75H20.75C21.0815 10.75 21.3995 10.8817 21.6339 11.1161C21.8683 11.3505 22 11.6685 22 12C22 12.3315 21.8683 12.6495 21.6339 12.8839C21.3995 13.1183 21.0815 13.25 20.75 13.25H13.25H3.25C2.91848 13.25 2.60054 13.1183 2.36612 12.8839C2.1317 12.6495 2 12.3315 2 12C2 11.6685 2.1317 11.3505 2.36612 11.1161C2.60054 10.8817 2.91848 10.75 3.25 10.75H13.25H18.75Z" fill="#1A45DB"/>
</symbol><symbol id="plus" viewBox="0 0 24 24">
    <path d="M20.75 10.75H13.25V3.25C13.25 2.91848 13.1183 2.60054 12.8839 2.36612C12.6495 2.1317 12.3315 2 12 2C11.6685 2 11.3505 2.1317 11.1161 2.36612C10.8817 2.60054 10.75 2.91848 10.75 3.25V10.75H3.25C2.91848 10.75 2.60054 10.8817 2.36612 11.1161C2.1317 11.3505 2 11.6685 2 12C2 12.3315 2.1317 12.6495 2.36612 12.8839C2.60054 13.1183 2.91848 13.25 3.25 13.25H10.75V20.75C10.75 21.0815 10.8817 21.3995 11.1161 21.6339C11.3505 21.8683 11.6685 22 12 22C12.3315 22 12.6495 21.8683 12.8839 21.6339C13.1183 21.3995 13.25 21.0815 13.25 20.75V13.25H20.75C21.0815 13.25 21.3995 13.1183 21.6339 12.8839C21.8683 12.6495 22 12.3315 22 12C22 11.6685 21.8683 11.3505 21.6339 11.1161C21.3995 10.8817 21.0815 10.75 20.75 10.75Z" fill="#173DC2"/>
</symbol></svg>